<?xml version="1.0" encoding="UTF-8" standalone="no"?> <!-- Created with Inkscape (http://www.inkscape.org/) -->  <svg xmlns:dc="http://purl.org/dc/elements/1.1/" xmlns:cc="http://creativecommons.org/ns#" xmlns:rdf="http://www.w3.org/1999/02/22-rdf-syntax-ns#" xmlns:svg="http://www.w3.org/2000/svg" xmlns="http://www.w3.org/2000/svg" version="1.1" width="512" height="512" id="svg2"> <defs id="defs4" /> <metadata id="metadata7"> <rdf:RDF> <cc:Work rdf:about=""> <dc:format>image/svg+xml</dc:format> <dc:type rdf:resource="http://purl.org/dc/dcmitype/StillImage" /> <dc:title></dc:title> </cc:Work> </rdf:RDF> </metadata> <g id="g3079"> <g id="layer7" style="display:inline"> <path d="M 256.0156,0.4375 C 114.88065,0.4375 0.4531,114.86505 0.4531,256 c 0,141.13495 114.42755,255.5625 255.5625,255.5625 141.13495,0 255.5313,-114.42755 255.5313,-255.5625 0,-141.13495 -114.39635,-255.5625 -255.5313,-255.5625 z m 0,94 c 89.22018,0 161.53125,72.34232 161.53125,161.5625 0,89.22018 -72.31107,161.5625 -161.53125,161.5625 -89.22018,0 -161.5625,-72.34232 -161.5625,-161.5625 0,-89.22018 72.34232,-161.5625 161.5625,-161.5625 z" id="path5667" style="fill:#ffffff;fill-opacity:1;stroke:#000000;stroke-width:3;stroke-opacity:1;display:inline" /> </g> <g id="layer9" style="display:inline"> <path d="m 350.82616,232.30737 a 219.85335,219.85335 0 1 1 -439.706699,0 219.85335,219.85335 0 1 1 439.706699,0 z" transform="matrix(-0.95150641,-0.30762892,-0.30762892,0.95150641,452.09842,75.249068)" id="path5849" style="fill:none;stroke:none;display:inline" /> <g transform="translate(0.25472533,2.2002475)" id="text5851" style="font-size:36px;font-style:normal;font-weight:bold;line-height:125%;letter-spacing:0px;word-spacing:0px;fill:#000000;fill-opacity:1;stroke:none;font-family:Sans;-inkscape-font-specification:Sans Bold"> <path d="m 69.649527,198.29024 -1.793115,6.13493 -23.790763,-6.95356 1.793115,-6.13493 23.790763,6.95356" id="path3045" style="font-size:34px;fill:#000000;-inkscape-font-specification:Sans Bold" /> <path d="m 66.552285,208.22136 -1.358002,7.00831 -18.404438,5.6161 16.689567,3.23394 -1.152722,5.94892 -24.333519,-4.71511 1.358001,-7.00831 18.404439,-5.6161 -16.689567,-3.23394 1.152721,-5.94892 24.33352,4.71511" id="path3047" style="font-size:34px;fill:#000000;-inkscape-font-specification:Sans Bold" /> <path d="m 60.016387,250.46776 -5.233067,-0.36947 c 0.703072,-1.3151 1.254779,-2.60758 1.655124,-3.87744 0.400307,-1.2699 0.641004,-2.47893 0.72209,-3.62709 0.10755,-1.52357 -0.02271,-2.66448 -0.390769,-3.42274 -0.368102,-0.75829 -0.993751,-1.16861 -1.876951,-1.23096 -0.66243,-0.0468 -1.198469,0.15947 -1.608118,0.61875 -0.39942,0.47108 -0.777204,1.34312 -1.133355,2.61613 l -0.738245,2.67731 c -0.746117,2.71002 -1.723143,4.6049 -2.93108,5.68464 -1.207959,1.07969 -2.849713,1.54628 -4.925267,1.39975 -2.726939,-0.19255 -4.701046,-1.14743 -5.922327,-2.86464 -1.21102,-1.70543 -1.699218,-4.21969 -1.464593,-7.54278 0.110688,-1.56772 0.370808,-3.13043 0.78036,-4.68813 0.409553,-1.55771 0.962628,-3.10528 1.659228,-4.64272 l 5.382109,0.38 c -0.950529,1.51951 -1.692911,2.99824 -2.227147,4.4362 -0.523984,1.44976 -0.834302,2.85913 -0.930955,4.22813 -0.09822,1.39106 0.05841,2.47281 0.469873,3.24525 0.411459,0.77242 1.047759,1.18904 1.908902,1.24986 0.772809,0.0545 1.386909,-0.15729 1.842301,-0.6355 0.454597,-0.46721 0.900508,-1.43984 1.337734,-2.91792 l 0.720706,-2.4289 c 0.704526,-2.4356 1.676939,-4.18657 2.91724,-5.2529 1.239498,-1.0553 2.841831,-1.51357 4.807007,-1.37482 2.46195,0.17382 4.299224,1.1024 5.511826,2.78573 1.212557,1.68333 1.713616,4.01542 1.503178,6.99629 -0.0959,1.35793 -0.299388,2.74712 -0.610462,4.16755 -0.300081,1.42118 -0.708528,2.88465 -1.225342,4.39042" id="path3049" style="font-size:34px;fill:#000000;-inkscape-font-specification:Sans Bold" /> <path d="m 60.588673,252.13004 0.885344,22.82659 -4.827425,0.18723 -0.318493,-8.2116 -19.940085,0.77339 -0.247716,-6.3868 19.940085,-0.77339 -0.319135,-8.22818 4.827425,-0.18724" id="path3051" style="font-size:34px;fill:#000000;-inkscape-font-specification:Sans Bold" /> <path d="m 61.910348,276.18642 0.770506,6.34499 -24.605375,2.98796 -0.770506,-6.34499 24.605375,-2.98796" id="path3053" style="font-size:34px;fill:#000000;-inkscape-font-specification:Sans Bold" /> <path d="m 62.560628,283.88549 4.597621,22.3763 -4.732197,0.97232 -1.65394,-8.04962 -19.546739,4.01624 -1.286398,-6.26081 19.546738,-4.01624 -1.657282,-8.06587 4.732197,-0.97232" id="path3055" style="font-size:34px;fill:#000000;-inkscape-font-specification:Sans Bold" /> <path d="m 67.316706,306.68619 1.998795,6.07103 -14.11317,4.64655 c -1.944842,0.6403 -3.233927,1.41427 -3.867259,2.32193 -0.619375,0.91469 -0.691972,2.09215 -0.217791,3.53238 0.477625,1.45073 1.235523,2.35476 2.273695,2.7121 1.052125,0.36437 2.550607,0.2264 4.495452,-0.41389 l 14.11317,-4.64655 1.998796,6.07103 -14.11317,4.64655 c -3.332509,1.09715 -6.08864,1.07823 -8.2684,-0.0568 -2.179778,-1.13505 -3.833824,-3.41612 -4.962144,-6.84321 -1.124866,-3.41661 -1.147729,-6.22889 -0.06859,-8.43686 1.079131,-2.20798 3.284944,-3.86056 6.617447,-4.95773 l 14.11317,-4.64655" id="path3057" style="font-size:34px;fill:#000000;-inkscape-font-specification:Sans Bold" /> <path d="m 74.134688,327.44075 9.585932,20.73516 -4.385125,2.02725 -3.448427,-7.45923 -18.113126,8.37376 -2.68211,-5.80163 18.113126,-8.37375 -3.455394,-7.4743 4.385124,-2.02726" id="path3059" style="font-size:34px;fill:#000000;-inkscape-font-specification:Sans Bold" /> <path d="m 86.272633,360.35956 c -1.019409,-1.65989 -2.423038,-2.57077 -4.21089,-2.73264 -1.787894,-0.16187 -3.79471,0.44065 -6.020454,1.80755 -2.216343,1.36111 -3.656624,2.87555 -4.320847,4.54333 -0.664245,1.66778 -0.48667,3.33161 0.532725,4.99151 1.025164,1.66931 2.431689,2.5849 4.219577,2.74679 1.787858,0.16185 3.789959,-0.43777 6.006308,-1.79886 2.225737,-1.36692 3.670734,-2.88426 4.334994,-4.55203 0.664208,-1.66778 0.483738,-3.33633 -0.541413,-5.00565 m 3.946954,-2.42393 c 2.085074,3.39522 2.746993,6.65139 1.985759,9.7685 -0.761296,3.11709 -2.853688,5.72688 -6.277183,7.82938 -3.414112,2.09667 -6.683347,2.77961 -9.807714,2.04881 -3.124397,-0.73084 -5.72914,-2.79386 -7.814236,-6.18908 -2.079319,-3.3858 -2.741238,-6.64197 -1.985759,-9.7685 0.761259,-3.11711 2.848936,-5.724 6.263035,-7.82069 3.423508,-2.10248 6.697458,-2.78831 9.821862,-2.0575 3.130153,0.74026 5.734895,2.80328 7.814236,6.18908" id="path3061" style="font-size:34px;fill:#000000;-inkscape-font-specification:Sans Bold" /> <path d="m 103.89478,378.65846 4.78461,5.29794 -6.57452,18.08423 12.61648,-11.39405 4.06136,4.49708 -18.39493,16.61262 -4.784608,-5.29793 6.574518,-18.08424 -12.616482,11.39405 -4.061357,-4.49708 18.394929,-16.61262" id="path3063" style="font-size:34px;fill:#000000;-inkscape-font-specification:Sans Bold" /> <path d="m 119.28047,422.50918 -7.57129,-6.52368 -4.14238,2.39143 -4.86726,-4.1938 23.13418,-12.78462 5.77279,4.97404 -9.22413,24.76998 -4.86726,-4.19379 1.76535,-4.43956 m -3.36215,-8.96716 5.14395,4.4322 3.8713,-9.68136 -9.01525,5.24916" id="path3065" style="font-size:34px;fill:#000000;-inkscape-font-specification:Sans Bold" /> <path d="m 142.18264,442.8428 c -1.31297,-0.15186 -2.5836,-0.45541 -3.8119,-0.91065 -1.22833,-0.45527 -2.41582,-1.06991 -3.56247,-1.84394 -3.42167,-2.30972 -5.48839,-5.09355 -6.20018,-8.35152 -0.70561,-3.26713 0.0469,-6.53814 2.25755,-9.81303 2.21682,-3.28404 4.96912,-5.20513 8.25691,-5.76329 3.29395,-0.5673 6.65176,0.3039 10.07343,2.6136 1.14664,0.77404 2.16075,1.64554 3.04233,2.61449 0.88152,0.96898 1.63819,2.03391 2.27002,3.19482 l -2.87011,4.25184 c -0.52954,-1.33222 -1.16604,-2.47628 -1.9095,-3.43217 -0.74352,-0.95588 -1.64273,-1.78988 -2.69764,-2.502 -1.88973,-1.2756 -3.78449,-1.6733 -5.68431,-1.19312 -1.89984,0.4802 -3.56806,1.78441 -5.00465,3.91261 -1.43042,2.11905 -2.01309,4.14935 -1.74801,6.09091 0.26507,1.94157 1.34246,3.55015 3.23218,4.82576 1.05491,0.71211 2.16466,1.23421 3.32924,1.56632 1.16455,0.3321 2.46362,0.49461 3.89722,0.48753 l -2.87011,4.25184" id="path3067" style="font-size:34px;fill:#000000;-inkscape-font-specification:Sans Bold" /> <path d="m 158.16083,424.83284 5.58585,3.10659 -12.04712,21.66147 -5.58585,-3.10659 12.04712,-21.66147" id="path3069" style="font-size:34px;fill:#000000;-inkscape-font-specification:Sans Bold" /> <path d="m 175.81343,438.41622 c -1.78417,-0.78178 -3.45662,-0.7292 -5.01737,0.15775 -1.56079,0.88697 -2.86533,2.52664 -3.91363,4.91901 -1.04389,2.38224 -1.3629,4.44771 -0.95704,6.19642 0.40583,1.74871 1.50082,3.01396 3.28498,3.79576 1.79427,0.78623 3.47179,0.73587 5.03258,-0.15108 1.56075,-0.88696 2.86307,-2.52156 3.90697,-4.9038 1.04829,-2.39238 1.36952,-4.46292 0.9637,-6.21164 -0.40587,-1.7487 -1.50593,-3.01617 -3.30019,-3.80242 m 1.85898,-4.24241 c 3.64937,1.59914 6.05052,3.89592 7.20349,6.89034 1.1529,2.99444 0.92314,6.33155 -0.68928,10.01135 -1.60804,3.66966 -3.90357,6.09553 -6.88658,7.27763 -2.98306,1.18208 -6.29928,0.97356 -9.94865,-0.62556 -3.63926,-1.59468 -6.04042,-3.89146 -7.20348,-6.89033 -1.15294,-2.99443 -0.9254,-6.32648 0.68261,-9.99615 1.61245,-3.67978 3.91019,-6.11073 6.89325,-7.29283 2.99316,-1.17763 6.30937,-0.96912 9.94864,0.62555" id="path3071" style="font-size:34px;fill:#000000;-inkscape-font-specification:Sans Bold" /> <path d="m 190.75965,440.16194 6.85263,2.00052 3.8894,18.84507 4.76404,-16.31883 5.81676,1.69812 -6.946,23.79297 -6.85263,-2.00052 -3.8894,-18.84507 -4.76404,16.31883 -5.81676,-1.69812 6.946,-23.79297" id="path3073" style="font-size:34px;fill:#000000;-inkscape-font-specification:Sans Bold" /> <path d="m 226.86161,469.45183 -9.86615,-1.59434 -2.27731,4.2062 -6.34253,-1.02494 13.01717,-23.00413 7.52253,1.21562 5.10901,25.93328 -6.34252,-1.02494 -0.8202,-4.70675 m -7.5592,-5.87983 6.70309,1.0832 -1.77019,-10.27532 -4.9329,9.19212" id="path3075" style="font-size:34px;fill:#000000;-inkscape-font-specification:Sans Bold" /> <path d="m 238.58037,450.48884 6.38341,0.32346 -1.00985,19.9295 11.20827,0.56794 -0.24448,4.82487 -17.59169,-0.8914 1.25434,-24.75437" id="path3077" style="font-size:34px;fill:#000000;-inkscape-font-specification:Sans Bold" /> <path d="m 265.21861,451.24608 22.71507,-2.42131 0.51206,4.80384 -8.17148,0.87104 2.11513,19.84267 -6.3556,0.67747 -2.11512,-19.84266 -8.18799,0.87279 -0.51207,-4.80384" id="path3079" style="font-size:34px;fill:#000000;-inkscape-font-specification:Sans Bold" /> <path d="m 288.58056,448.56292 16.86245,-3.63134 1.01705,4.72278 -10.61409,2.28575 0.97162,4.5118 9.98114,-2.14944 1.01706,4.72278 -9.98115,2.14945 1.19531,5.55048 10.97114,-2.36264 1.01705,4.72279 -17.2195,3.70823 -5.21808,-24.23064 m 7.58839,-8.52892 4.59295,-0.9891 -3.70272,5.28067 -3.18098,0.68503 2.29075,-4.9766" id="path3081" style="font-size:34px;fill:#000000;-inkscape-font-specification:Sans Bold" /> <path d="m 334.68327,460.10401 c -0.92063,0.94836 -1.93572,1.7707 -3.04527,2.46702 -1.10959,0.69634 -2.32064,1.26315 -3.63315,1.70046 -3.9166,1.30492 -7.38326,1.24669 -10.39998,-0.1747 -3.02023,-1.43188 -5.15482,-4.02211 -6.40377,-7.7707 -1.25244,-3.75907 -1.09798,-7.11196 0.46339,-10.0587 1.55787,-2.95718 4.2951,-5.08825 8.21169,-6.3932 1.31252,-0.43728 2.62153,-0.71009 3.92702,-0.81844 1.30547,-0.10828 2.61093,-0.0591 3.91639,0.14754 l 1.62153,4.86686 c -1.37892,-0.39215 -2.67387,-0.58483 -3.88482,-0.57802 -1.21099,0.007 -2.42024,0.21143 -3.62775,0.61373 -2.16306,0.7207 -3.6332,1.98047 -4.41042,3.77929 -0.77724,1.79887 -0.76003,3.91632 0.0516,6.35236 0.80814,2.42557 2.06262,4.12495 3.76345,5.09815 1.70082,0.97322 3.63275,1.09949 5.79581,0.3788 1.20751,-0.40231 2.29782,-0.9639 3.27091,-1.68476 0.97306,-0.72083 1.89366,-1.65168 2.76182,-2.79255 l 1.62154,4.86686" id="path3083" style="font-size:34px;fill:#000000;-inkscape-font-specification:Sans Bold" /> <path d="m 329.4673,437.05377 6.45086,-3.0573 15.42673,11.5013 -7.28066,-15.36204 5.47573,-2.59515 10.61525,22.39796 -6.45086,3.05731 -15.42673,-11.5013 7.28066,15.36203 -5.47573,2.59516 -10.61525,-22.39797" id="path3085" style="font-size:34px;fill:#000000;-inkscape-font-specification:Sans Bold" /> <path d="m 352.87908,425.34869 5.49637,-3.26228 12.65087,21.31449 -5.49637,3.26229 -12.65087,-21.3145" id="path3087" style="font-size:34px;fill:#000000;-inkscape-font-specification:Sans Bold" /> <path d="m 391.64022,427.63765 c -0.60011,1.17763 -1.32763,2.2627 -2.18256,3.25519 -0.85497,0.99252 -1.84507,1.8912 -2.97032,2.69603 -3.35777,2.40165 -6.68751,3.36807 -9.9892,2.89928 -3.30814,-0.47778 -6.11152,-2.32354 -8.41015,-5.53729 -2.30505,-3.22272 -3.14598,-6.47212 -2.5228,-9.74821 0.61677,-3.28504 2.60403,-6.1284 5.96179,-8.53007 1.12526,-0.80481 2.29565,-1.45142 3.51117,-1.93985 1.21552,-0.48836 2.47745,-0.82625 3.7858,-1.01368 l 2.98435,4.17246 c -1.43326,0.0318 -2.72744,0.22949 -3.88257,0.59302 -1.15513,0.36359 -2.25032,0.91559 -3.28555,1.65602 -1.85442,1.3264 -2.8878,2.9636 -3.10013,4.91162 -0.21233,1.94806 0.42839,3.96632 1.92217,6.05478 1.48734,2.07949 3.18709,3.33348 5.09925,3.76197 1.91215,0.42851 3.79543,-0.0204 5.64987,-1.34681 1.03522,-0.74044 1.91149,-1.59852 2.6288,-2.57423 0.71728,-0.97568 1.32253,-2.13657 1.81573,-3.48268 l 2.98435,4.17245" id="path3089" style="font-size:34px;fill:#000000;-inkscape-font-specification:Sans Bold" /> <path d="m 391.01063,402.6007 c -1.43421,1.31813 -2.05974,2.87009 -1.87659,4.65589 0.18316,1.78584 1.15847,3.64032 2.92593,5.56345 1.75998,1.91502 3.52199,3.03897 5.28604,3.37186 1.76404,0.33292 3.36317,-0.15968 4.79739,-1.4778 1.44236,-1.32559 2.07196,-2.88129 1.88882,-4.66713 -0.18317,-1.7858 -1.15473,-3.63621 -2.9147,-5.55123 -1.76747,-1.92313 -3.53322,-3.05115 -5.29727,-3.38408 -1.76405,-0.33288 -3.36726,0.16346 -4.80962,1.48904 m -3.13425,-3.41034 c 2.93362,-2.6961 6.00301,-3.96872 9.20818,-3.81788 3.20517,0.1509 6.16705,1.70537 8.88566,4.66341 2.71109,2.94994 4.00684,6.02814 3.88726,9.23461 -0.11961,3.2065 -1.64622,6.15781 -4.57982,8.85393 -2.92548,2.68865 -5.99487,3.96128 -9.20819,3.81789 -3.20517,-0.15087 -6.1633,-1.70127 -8.87442,-4.65119 -2.71859,-2.95805 -4.01809,-6.04033 -3.8985,-9.24684 0.12776,-3.21395 1.65437,-6.16526 4.57983,-8.85393" id="path3091" style="font-size:34px;fill:#000000;-inkscape-font-specification:Sans Bold" /> <path d="m 405.91539,380.95427 4.01203,-4.97556 19.29483,15.55834 -4.01203,4.97556 -19.29483,-15.55834" id="path3093" style="font-size:34px;fill:#000000;-inkscape-font-specification:Sans Bold" /> <path d="m 412.56925,373.00153 3.9375,-5.95455 19.15239,1.85737 -14.18016,-9.37673 3.3423,-5.05445 20.67477,13.67135 -3.93749,5.95456 -19.15239,-1.85738 14.18016,9.37674 -3.3423,5.05445 -20.67478,-13.67136" id="path3095" style="font-size:34px;fill:#000000;-inkscape-font-specification:Sans Bold" /> <path d="m 433.49488,348.16363 13.58763,6.64171 1.0061,-2.05828 c 1.14705,-2.34662 1.44023,-4.42076 0.87955,-6.22242 -0.55583,-1.81157 -1.94243,-3.25929 -4.1598,-4.34318 -2.20743,-1.07898 -4.1892,-1.2839 -5.94533,-0.61475 -1.75611,0.6692 -3.21012,2.18208 -4.36205,4.53864 l -1.0061,2.05828 m -7.14715,3.62074 2.95997,-6.05552 c 1.65255,-3.38072 3.12584,-5.77732 4.41987,-7.18979 1.28898,-1.42721 2.79937,-2.45056 4.53118,-3.07005 1.51463,-0.55313 3.05214,-0.76248 4.61254,-0.62805 1.56041,0.13449 3.17088,0.60756 4.83143,1.41922 1.68042,0.82143 3.05793,1.8089 4.13253,2.96242 1.06464,1.14871 1.84393,2.49052 2.33788,4.02545 0.57018,1.75703 0.69061,3.58986 0.3613,5.49849 -0.33927,1.9038 -1.32544,4.52618 -2.95853,7.86714 l -2.95997,6.05552 -22.2682,-10.88483" id="path3097" style="font-size:34px;fill:#000000;-inkscape-font-specification:Sans Bold" /> <path d="m 437.17619,329.12055 2.06263,-6.04964 14.06344,4.79496 c 1.93799,0.66077 3.43315,0.81975 4.48549,0.47693 1.04544,-0.35683 1.81282,-1.25283 2.30214,-2.688 0.49289,-1.44561 0.4327,-2.62377 -0.18057,-3.53448 -0.62018,-0.92472 -1.89925,-1.71747 -3.83723,-2.37825 l -14.06344,-4.79496 2.06263,-6.04963 14.06344,4.79495 c 3.32075,1.13225 5.50904,2.80796 6.56486,5.02716 1.05581,2.21924 1.00154,5.03637 -0.16282,8.45138 -1.16079,3.40457 -2.83699,5.66285 -5.02859,6.77485 -2.19161,1.11201 -4.94778,1.10191 -8.26854,-0.0303 l -14.06344,-4.79495" id="path3099" style="font-size:34px;fill:#000000;-inkscape-font-specification:Sans Bold" /> <path d="m 449.27177,288.92005 5.12928,1.10089 c -0.88083,1.2033 -1.60862,2.40546 -2.18337,3.6065 -0.57472,1.20107 -0.98286,2.36431 -1.22443,3.4897 -0.32049,1.49335 -0.35179,2.64125 -0.0939,3.4437 0.25794,0.80247 0.81974,1.2966 1.68543,1.4824 0.64929,0.13936 1.20899,0.0104 1.67909,-0.38673 0.46163,-0.4103 0.95816,-1.22062 1.4896,-2.43098 l 1.107,-2.54707 c 1.1194,-2.57835 2.35291,-4.31719 3.70054,-5.21655 1.34764,-0.89931 3.03866,-1.13065 5.07305,-0.69403 2.67286,0.5737 4.49326,1.79641 5.46122,3.66815 0.95945,1.85863 1.08963,4.41653 0.39054,7.67372 -0.3298,1.53663 -0.80686,3.0473 -1.43115,4.53203 -0.62431,1.48473 -1.38928,2.93927 -2.29494,4.36361 l -5.27537,-1.13225 c 1.15455,-1.37092 2.09729,-2.73071 2.82821,-4.07936 0.72244,-1.36178 1.22765,-2.7136 1.51565,-4.05545 0.29265,-1.36346 0.28953,-2.45649 -0.009,-3.27907 -0.29888,-0.82256 -0.87035,-1.32443 -1.71441,-1.5056 -0.75748,-0.16257 -1.39525,-0.0391 -1.9133,0.37041 -0.51572,0.39871 -1.09383,1.29907 -1.73435,2.70107 l -1.05474,2.30359 c -1.03967,2.31249 -2.2484,3.9095 -3.62619,4.79103 -1.37544,0.87073 -3.02626,1.09938 -4.95246,0.68596 -2.41312,-0.51793 -4.10175,-1.69538 -5.06587,-3.53236 -0.96408,-1.83696 -1.13258,-4.21631 -0.50551,-7.13807 0.28569,-1.33099 0.6823,-2.67782 1.18982,-4.04047 0.49673,-1.36494 1.1067,-2.75653 1.82991,-4.17477" id="path3101" style="font-size:34px;fill:#000000;-inkscape-font-specification:Sans Bold" /> <path d="m 448.94361,287.17803 2.34498,-22.72307 4.80553,0.49592 -0.84358,8.17436 19.84966,2.04845 -0.65612,6.35784 -19.84966,-2.04845 -0.84528,8.19087 -4.80553,-0.49592" id="path3103" style="font-size:34px;fill:#000000;-inkscape-font-specification:Sans Bold" /> <path d="m 462.12759,254.75086 c -0.0136,-1.33911 -0.27239,-2.29388 -0.77628,-2.86431 -0.50398,-0.58147 -1.32593,-0.86641 -2.46586,-0.85482 -1.12883,0.0115 -1.93375,0.31302 -2.41475,0.90452 -0.48107,0.58046 -0.7148,1.54025 -0.70118,2.87936 l 0.0274,2.68931 6.35806,-0.0648 -0.0274,-2.68931 m 4.44317,2.64434 9.3794,-0.0955 0.0651,6.39127 -24.78484,0.2524 -0.0994,-9.76121 c -0.0332,-3.26479 0.49026,-5.66087 1.57044,-7.18824 1.08011,-1.5384 2.80434,-2.31967 5.17269,-2.34381 1.63795,-0.0167 2.98666,0.36806 4.04614,1.15417 1.05939,0.77508 1.84621,1.9569 2.36045,3.54548 0.19031,-0.87632 0.63612,-1.66117 1.33742,-2.35456 0.69014,-0.70431 1.74542,-1.41789 3.16586,-2.14075 l 7.00337,-3.54123 0.0693,6.80629 -6.12809,3.08405 c -1.23332,0.62133 -2.07364,1.24971 -2.52098,1.88514 -0.44743,0.6244 -0.66585,1.45674 -0.65527,2.49704 l 0.0184,1.80947" id="path3105" style="font-size:34px;fill:#000000;-inkscape-font-specification:Sans Bold" /> <path d="m 450.50684,240.00074 -0.63273,-6.36021 24.66439,-2.45367 0.63273,6.36021 -24.66439,2.45367" id="path3107" style="font-size:34px;fill:#000000;-inkscape-font-specification:Sans Bold" /> <path d="m 466.68865,210.97851 1.86926,9.81778 4.73092,0.70474 1.20166,6.31142 -26.06584,-4.38277 -1.42523,-7.48565 22.63163,-13.65453 1.20167,6.31143 -4.14407,2.37758 m -2.94631,9.11226 -1.26998,-6.67022 -9.05387,5.17137 10.32385,1.49885" id="path3109" style="font-size:34px;fill:#000000;-inkscape-font-specification:Sans Bold" /> <path d="m 444.85932,206.4237 -1.87151,-6.11147 19.08049,-5.84297 -3.28607,-10.73079 4.61932,-1.41456 5.15757,16.84226 -23.6998,7.25753" id="path3111" style="font-size:34px;fill:#000000;-inkscape-font-specification:Sans Bold" /> </g> <path d="M 301.43469,413.01402 C 373.91926,391.01722 412.74427,339.26 415.79046,248.79448" id="path5812" style="fill:none;stroke:none;display:inline" /> <g transform="translate(-2.6012347,-5.7925374)" id="text5841" style="font-size:28px;font-style:normal;font-weight:bold;line-height:125%;letter-spacing:0px;word-spacing:0px;fill:#000000;fill-opacity:1;stroke:none;display:inline;font-family:Sans;-inkscape-font-specification:Sans Bold"> <path d="m 294.83489,393.93146 17.73787,-6.26723 1.32541,3.75125 -6.381,2.25457 5.47472,15.49485 -4.96299,1.75355 -5.47472,-15.49485 -6.39388,2.25911 -1.32541,-3.75125" id="path3129" /> <path d="m 313.15081,387.33798 12.84824,-6.05863 1.69688,3.5985 -8.08734,3.81361 1.62108,3.43774 7.60507,-3.5862 1.69688,3.5985 -7.60507,3.5862 1.99428,4.22916 8.35939,-3.94191 1.69688,3.5985 -13.12029,6.18692 -8.706,-18.46239 m 4.49564,-8.2569 3.49957,-1.65024 -1.98486,4.92651 -2.42373,1.14292 0.90902,-4.41919" id="path3131" /> <path d="m 352.17012,387.8352 c -0.54934,0.93968 -1.19903,1.79721 -1.94908,2.57257 -0.75008,0.77539 -1.6068,1.4672 -2.57017,2.07543 -2.87473,1.81499 -5.65821,2.45133 -8.35045,1.90903 -2.69712,-0.55 -4.91423,-2.2007 -6.65137,-4.95213 -1.74199,-2.75911 -2.27897,-5.47058 -1.61095,-8.13443 0.66316,-2.67152 2.4321,-4.91478 5.30683,-6.72979 0.96338,-0.60821 1.95634,-1.08422 2.9789,-1.42803 1.02255,-0.34376 2.07612,-0.5616 3.16069,-0.65352 l 2.25535,3.57221 c -1.17987,-0.0419 -2.25329,0.0591 -3.22026,0.30308 -0.96697,0.24404 -1.89361,0.64584 -2.77992,1.20539 -1.58765,1.0024 -2.51504,2.29934 -2.78217,3.89083 -0.26713,1.59153 0.16375,3.28129 1.29264,5.06931 1.12402,1.78034 2.4619,2.89208 4.01363,3.33522 1.55173,0.44316 3.12142,0.16355 4.70908,-0.83884 0.8863,-0.55956 1.6475,-1.2234 2.2836,-1.99151 0.63608,-0.76808 1.18885,-1.69376 1.6583,-2.77704 l 2.25535,3.57222" id="path3133" /> <path d="m 342.9466,370.84069 4.43174,-3.8628 14.79521,5.67583 -9.19885,-10.55373 3.76183,-3.27889 13.41199,15.38742 -4.43174,3.8628 -14.79521,-5.67582 9.19885,10.55372 -3.76183,3.27889 -13.41199,-15.38742" id="path3135" /> <path d="m 366.42534,352.56511 c -1.00704,1.2487 -1.32691,2.58906 -0.95961,4.02108 0.36731,1.43205 1.38814,2.82324 3.06251,4.17359 1.66728,1.34464 3.23959,2.04478 4.71693,2.10042 1.47734,0.0556 2.71953,-0.54087 3.72658,-1.78956 1.01276,-1.25577 1.33549,-2.59967 0.96819,-4.03172 -0.3673,-1.43202 -1.38459,-2.82035 -3.05187,-4.16501 -1.67437,-1.35033 -3.25022,-2.05333 -4.72757,-2.109 -1.47733,-0.0556 -2.72239,0.54444 -3.73516,1.8002 m -2.96917,-2.39459 c 2.05987,-2.5541 4.40419,-3.96548 7.03297,-4.23415 2.62879,-0.26861 5.23088,0.63559 7.8063,2.7126 2.5683,2.07133 3.99959,4.42 4.29387,7.04602 0.29426,2.62605 -0.58853,5.21613 -2.64839,7.77024 -2.05415,2.54704 -4.39847,3.95842 -7.03298,4.23415 -2.62878,0.26864 -5.22732,-0.6327 -7.79564,-2.70401 -2.5754,-2.07702 -4.01024,-4.42856 -4.30452,-7.05461 -0.28854,-2.63311 0.59426,-5.22319 2.64839,-7.77024" id="path3137" /> <path d="m 370.59543,341.21153 2.66689,-4.53806 14.16817,8.32624 4.68264,-7.96812 3.43006,2.01575 -7.34953,12.50618 -17.59823,-10.34199" id="path3139" /> <path d="m 384.57327,321.76739 c -0.62139,1.47893 -0.55715,2.85543 0.19274,4.1295 0.74992,1.27409 2.11641,2.32776 4.0995,3.161 1.9747,0.82973 3.67948,1.06655 5.11434,0.71045 1.43486,-0.35609 2.463,-1.27359 3.08441,-2.75252 0.62494,-1.48731 0.56246,-2.86801 -0.18745,-4.1421 -0.7499,-1.27407 -2.11219,-2.32597 -4.08689,-3.15571 -1.98309,-0.83323 -3.69207,-1.07181 -5.12694,-0.71574 -1.43485,0.35611 -2.46475,1.27781 -3.08971,2.76512 m -3.51663,-1.47762 c 1.27108,-3.02504 3.13225,-5.031 5.58351,-6.01789 2.45129,-0.98685 5.20206,-0.83946 8.25232,0.44217 3.04187,1.27815 5.06817,3.13798 6.07891,5.57949 1.01073,2.44155 0.88057,5.17485 -0.39049,8.19989 -1.26753,3.01667 -3.1287,5.02263 -5.58351,6.0179 -2.45127,0.98688 -5.19784,0.84125 -8.23972,-0.43688 -3.05025,-1.28165 -5.08076,-3.14324 -6.09151,-5.58478 -1.00719,-2.44993 -0.87703,-5.18322 0.39049,-8.1999" id="path3141" /> <path d="m 408.76855,296.72665 c 0.27099,1.43399 0.37491,2.87446 0.31176,4.32139 -0.0632,1.44697 -0.29218,2.89601 -0.68707,4.34713 -0.89272,3.28045 -2.5146,5.63039 -4.86566,7.04982 -2.35984,1.41705 -5.10963,1.69837 -8.24936,0.84394 -3.17489,-0.86398 -5.40693,-2.51991 -6.69614,-4.96777 -1.28918,-2.44784 -1.47186,-5.36915 -0.54805,-8.76394 0.35662,-1.3104 0.8208,-2.53014 1.39253,-3.65923 0.57416,-1.13785 1.24788,-2.17304 2.02117,-3.1056 l 4.07636,1.10931 c -0.92358,0.92944 -1.68767,1.89754 -2.29227,2.9043 -0.60219,0.99801 -1.05167,2.04227 -1.34846,3.1328 -0.55045,2.02281 -0.40801,3.73825 0.42734,5.14632 0.82896,1.3969 2.29441,2.38135 4.39634,2.95335 2.08437,0.56723 3.8374,0.47752 5.25912,-0.26911 1.42172,-0.74662 2.39705,-2.09176 2.92597,-4.03541 0.1436,-0.52767 0.24565,-1.02415 0.30615,-1.48945 0.0541,-0.47646 0.0598,-0.91414 0.0173,-1.31303 l -3.82572,-1.0411 -0.84365,3.10015 -3.40356,-0.92622 2.154,-7.91527 9.47194,2.57762" id="path3143" /> <path d="m 390.9151,288.78494 0.97083,-5.17337 20.06192,3.76477 -0.97083,5.17337 -20.06192,-3.76477" id="path3145" /> <path d="m 410.69435,269.53454 -0.98779,8.17098 3.53599,1.73575 -0.63502,5.25277 -19.35717,-9.9557 0.75316,-6.23003 21.17196,-5.05609 -0.63502,5.25277 -3.84611,0.82955 m -4.59001,6.41345 0.67112,-5.55138 -8.39713,1.79423 7.72601,3.75715" id="path3147" /> </g> <path d="m 93.71961,266.89797 c 0.4632,45.0513 35.63208,100.36539 65.61762,117.38893" id="path5821" style="fill:none;stroke:none;display:inline" /> <g transform="translate(8.4998553,2.2002475)" id="text5823" style="font-size:40px;font-style:normal;font-weight:normal;line-height:125%;letter-spacing:0px;word-spacing:0px;fill:#000000;fill-opacity:1;stroke:none;display:inline;font-family:Sans"> <path d="m 96.464942,285.44659 c -0.607772,-0.90299 -1.097948,-1.86069 -1.470528,-2.87309 -0.372584,-1.01243 -0.623563,-2.08461 -0.752937,-3.21655 -0.386055,-3.37776 0.249887,-6.16134 1.907829,-8.35074 1.666991,-2.19044 4.116914,-3.47041 7.349784,-3.8399 3.2419,-0.37053 5.91746,0.32362 8.02667,2.08247 2.11824,1.75781 3.37039,4.32559 3.75647,7.70334 0.12935,1.13195 0.12677,2.23311 -0.008,3.3035 -0.13455,1.07036 -0.39599,2.11396 -0.78432,3.1308 l -4.19728,0.47972 c 0.55029,-1.04452 0.92558,-2.05526 1.12585,-3.03222 0.20023,-0.97699 0.24084,-1.98618 0.12184,-3.02756 -0.21323,-1.86547 -0.97857,-3.26417 -2.29603,-4.19611 -1.31749,-0.93195 -3.02667,-1.27786 -5.12757,-1.03773 -2.09185,0.23908 -3.67438,0.96121 -4.747591,2.1664 -1.073218,1.20518 -1.503219,2.7405 -1.290004,4.60597 0.11902,1.04138 0.386298,2.01538 0.801835,2.92199 0.415525,0.90657 1.009193,1.80657 1.78101,2.69998 l -4.197288,0.47973" id="path3114" style="font-size:28px;font-weight:bold;-inkscape-font-specification:Sans Bold" /> <path d="m 116.37773,284.85342 1.27853,5.10604 -19.800814,4.95803 -1.278527,-5.10604 19.800811,-4.95803" id="path3116" style="font-size:28px;font-weight:bold;-inkscape-font-specification:Sans Bold" /> <path d="m 118.39693,293.03671 4.80065,13.3693 -3.74444,1.34455 -3.02177,-8.41532 -3.57715,1.28448 2.84157,7.91349 -3.74443,1.34455 -2.84158,-7.91349 -4.40067,1.5802 3.12342,8.6984 -3.74443,1.34455 -4.902294,-13.65238 19.211124,-6.89833" id="path3118" style="font-size:28px;font-weight:bold;-inkscape-font-specification:Sans Bold" /> <path d="m 124.09987,308.69279 2.64725,5.24915 -9.15739,12.93273 12.50031,-6.30415 2.24708,4.45568 -18.22555,9.19149 -2.64725,-5.24916 9.15739,-12.93272 -12.50031,6.30414 -2.24708,-4.45568 18.22555,-9.19148" id="path3120" style="font-size:28px;font-weight:bold;-inkscape-font-specification:Sans Bold" /> <path d="m 126.66159,351.53546 c -0.95152,-0.52858 -1.8231,-1.15929 -2.61475,-1.89213 -0.79167,-0.73288 -1.50212,-1.5742 -2.13135,-2.52399 -1.87767,-2.83419 -2.57497,-5.60303 -2.0919,-8.30653 0.49065,-2.70854 2.09228,-4.96136 4.8049,-6.75848 2.7202,-1.80215 5.41924,-2.39853 8.09711,-1.78916 2.68543,0.60436 4.96699,2.32362 6.84467,5.15781 0.62922,0.94979 1.12692,1.93207 1.49309,2.94683 0.36613,1.01476 0.60704,2.06329 0.72276,3.14558 l -3.52184,2.33324 c 0.016,-1.18051 -0.10854,-2.25145 -0.37371,-3.21283 -0.2652,-0.96139 -0.68725,-1.87898 -1.26613,-2.75279 -1.03701,-1.56526 -2.354,-2.46396 -3.95097,-2.69608 -1.59701,-0.23213 -3.27691,0.23575 -5.03971,1.40362 -1.75523,1.16284 -2.83733,2.5248 -3.2463,4.08589 -0.40899,1.56108 -0.095,3.12425 0.94202,4.68952 0.57889,0.8738 1.25928,1.62025 2.04117,2.23933 0.78186,0.61907 1.71945,1.15138 2.81278,1.59694 l -3.52184,2.33323" id="path3122" style="font-size:28px;font-weight:bold;-inkscape-font-specification:Sans Bold" /> <path d="m 144.45289,342.82528 3.28301,4.11438 -15.95524,12.73124 -3.28301,-4.11438 15.95524,-12.73124" id="path3124" style="font-size:28px;font-weight:bold;-inkscape-font-specification:Sans Bold" /> <path d="m 146.35277,369.9064 -5.83025,-5.80938 -3.54489,1.71751 -3.74802,-3.7346 19.76333,-9.12288 4.44532,4.4294 -9.05194,19.79592 -3.74801,-3.7346 1.71446,-3.54137 m -2.22743,-7.56565 3.96109,3.9469 3.75647,-7.7214 -7.71756,3.7745" id="path3126" style="font-size:28px;font-weight:bold;-inkscape-font-specification:Sans Bold" /> </g> <path d="M 67.089807,49.606613 A 193.54742,193.54742 0 0 1 195.70975,49.907446" transform="translate(125.03968,23.692639)" id="path5672" style="fill:none;stroke:none;display:inline" /> <g transform="translate(-5.4929247,2.2002475)" id="text5875" style="font-size:36px;font-style:normal;font-weight:bold;line-height:125%;letter-spacing:0px;word-spacing:0px;fill:#000000;fill-opacity:1;stroke:none;display:inline;font-family:Sans;-inkscape-font-specification:Sans Bold"> <path d="m 186.8406,42.736548 7.55235,-2.302413 8.92858,29.287411 -7.55235,2.302413 -8.92858,-29.287411" id="path3150" style="font-size:42px" /> <path d="m 209.57707,59.904538 7.21425,-1.568626 1.68627,7.755313 -7.21425,1.568627 -1.68627,-7.755314" id="path3152" style="font-size:42px" /> <path d="m 223.98858,33.708358 8.78883,-0.720992 12.81543,20.01923 -1.71697,-20.929692 7.46029,-0.612006 2.50336,30.515655 -8.78884,0.720993 -12.81543,-20.01923 1.71697,20.929692 -7.46029,0.612005 -2.50335,-30.515655" id="path3154" style="font-size:42px" /> <path d="m 262.45049,54.584725 7.37345,0.371681 -0.39956,7.92646 -7.37345,-0.371682 0.39956,-7.926459" id="path3156" style="font-size:42px" /> <path d="m 278.52843,32.701187 27.9056,4.192334 -0.88661,5.901546 -10.03871,-1.508143 -3.6622,24.376835 -7.80789,-1.173001 3.6622,-24.376834 -10.05899,-1.51119 0.8866,-5.901547" id="path3158" style="font-size:42px" /> <path d="m 301.84791,59.763415 7.15713,1.811451 -1.94731,7.693919 -7.15713,-1.811451 1.94731,-7.693919" id="path3160" style="font-size:42px" /> <path d="m 324.81949,42.618544 7.47029,2.556139 -9.91251,28.969194 -7.47029,-2.556139 9.91251,-28.969194" id="path3162" style="font-size:42px" /> </g> </g> <g id="layer8" style="display:inline"> <g transform="translate(0.01248,0)" id="g5798"> <path d="M 45.066385,175.925 C 64.574542,124.57092 102.29918,82.186131 150.34629,56.664647 l 15.00392,28.271715 C 124.23978,106.76894 91.933823,142.98747 75.146627,186.87767 z" id="path5768" style="fill:#ffffff;fill-opacity:1;stroke:#000000;stroke-width:3;stroke-opacity:1;display:inline" /> <path d="M 165.35021,84.936362 C 124.23978,106.76894 91.933823,142.98747 75.146627,186.87767 l 30.070553,10.98164 c 14.05916,-36.43129 40.94256,-66.48963 75.11444,-84.63928 z" id="path5754" style="fill:#3c4e98;fill-opacity:1;stroke:#000000;stroke-width:3;stroke-opacity:1;display:inline" /> <path d="M 150.34629,56.664647 C 102.29918,82.186131 64.574542,124.57092 45.066385,175.925 L 16.97473,165.7009 C 39.015022,107.23018 81.701676,59.146765 136.34798,30.137368 z" id="path5703" style="fill:#3c4e98;stroke:#000000;stroke-width:3;stroke-opacity:1;display:inline" /> </g> <g transform="translate(0.01248,0)" id="g5793"> <path d="M 357.06028,52.733528 C 406.06136,77.567073 444.2156,119.56557 464.5088,170.04384 l -29.70085,11.92758 C 417.44881,138.78127 384.85273,102.82364 342.98564,81.485683 z" id="path5787" style="fill:#ffffff;fill-opacity:1;stroke:#000000;stroke-width:3;stroke-opacity:1;display:inline" /> <path d="M 434.80795,181.97142 C 417.44881,138.78127 384.85273,102.82364 342.98564,81.485683 l -14.10241,28.739457 c 34.66514,17.7622 61.07368,45.0321 77.21828,82.64629 z" id="path5789" style="fill:#009136;fill-opacity:1;stroke:#000000;stroke-width:3;stroke-opacity:1;display:inline" /> <path d="M 464.5088,170.04384 C 444.2156,119.56557 406.06136,77.567073 357.06028,52.733528 l 13.1397,-24.844003 c 57.1571,30.799327 99.70157,74.824725 122.16859,131.042085 z" id="path5791" style="fill:#ffff00;stroke:#000000;stroke-width:3;stroke-opacity:1;display:inline" /> </g> </g> <g id="layer6" style="display:inline"> <path d="m 324.88177,215.84314 a 53.070005,139.12061 0 1 1 -106.14001,0 53.070005,139.12061 0 1 1 106.14001,0 z" transform="translate(-17.92847,25.11975)" id="path5654" style="fill:none;stroke:#000000;stroke-width:3;stroke-opacity:1;display:inline" /> <path d="m 324.88177,215.84314 a 53.070005,139.12061 0 1 1 -106.14001,0 53.070005,139.12061 0 1 1 106.14001,0 z" transform="matrix(0.70627785,0.70793474,-0.70793474,0.70627785,214.71153,-103.90733)" id="path5659" style="fill:none;stroke:#000000;stroke-width:3;stroke-opacity:1;display:inline" /> <path d="m 324.88177,215.84314 a 53.070005,139.12061 0 1 1 -106.14001,0 53.070005,139.12061 0 1 1 106.14001,0 z" transform="matrix(-0.70491389,0.70929289,-0.70929289,-0.70491389,598.5832,200.31956)" id="path5657" style="fill:none;stroke:#000000;stroke-width:3;stroke-opacity:1;display:inline" /> <path d="m 159.63421,149.78386 a 10.470726,10.470726 0 1 1 -20.94145,0 10.470726,10.470726 0 1 1 20.94145,0 z" transform="translate(0.01248,9.4059067)" id="path5648" style="fill:#ff0000;stroke:#000000;stroke-width:3;stroke-opacity:1" /> <path d="m 324.88177,215.84314 a 53.070005,139.12061 0 1 1 -106.14001,0 53.070005,139.12061 0 1 1 106.14001,0 z" transform="matrix(-7.8366755e-4,0.99999969,-0.99999969,-7.8366755e-4,469.93938,-30.679645)" id="path5661" style="fill:none;stroke:#000000;stroke-width:3;stroke-opacity:1;display:inline" /> <path d="m 159.63421,149.78386 a 10.470726,10.470726 0 1 1 -20.94145,0 10.470726,10.470726 0 1 1 20.94145,0 z" transform="translate(30.53731,135.89414)" id="path5650" style="fill:#ff0000;stroke:#000000;stroke-width:3;stroke-opacity:1" /> <path d="m 159.63421,149.78386 a 10.470726,10.470726 0 1 1 -20.94145,0 10.470726,10.470726 0 1 1 20.94145,0 z" transform="translate(188.15303,71.580415)" id="path5652" style="fill:#ff0000;stroke:#000000;stroke-width:3;stroke-opacity:1" /> </g> <g transform="translate(-89.714272,-159.21931)" id="layer3" style="display:inline"> <path d="m 378.23993,284.1112 -6.27451,16.56471 7.27843,12.54902 11.04314,-0.25098 7.78039,-19.32549 c 6.71983,7.81924 11.09973,32.58385 -15.05882,37.39607 L 321.26738,473.6014 c 6.18445,16.57442 5.29894,22.847 0.75294,31.37255 l -6.77647,-16.06275 -12.29804,-3.51372 -5.52156,8.28235 5.27058,20.58039 c -18.76661,-4.21732 -33.59896,-40.70631 5.27059,-45.17647 L 368.4517,326.02493 c -16.57488,-23.68534 -3.40908,-33.87646 9.78823,-41.91373 z" id="path5643" style="fill:#cccccc;stroke:#000000;stroke-width:1px;stroke-linecap:butt;stroke-linejoin:miter;stroke-opacity:1" /> </g> <g transform="translate(-89.714272,-159.21931)" id="layer5" style="display:inline"> <path d="m 392.04385,424.40924 -9.53725,-25.34902 83.32549,68.51765 -46.43137,-25.09804 5.0196,14.30588 -128.25098,-68.51764 5.52158,12.8 -82.32158,-70.27452 74.2902,48.94118 -5.77255,-14.30588 z" id="path5641" style="fill:#ff0000;stroke:#000000;stroke-width:1px;stroke-linecap:butt;stroke-linejoin:miter;stroke-opacity:1" /> </g> <g transform="translate(-89.714272,-159.21931)" id="layer4" style="display:inline"> <path d="m 282.38748,345.5 -13.34375,4.3125 3.71875,11.4375 c -3.2164,1.92481 -6.13024,4.29247 -8.65625,7.03125 l -9.15625,-6.65625 -8.21875,11.34375 9.875,7.21875 c -1.35259,3.35864 -2.25516,6.94505 -2.625,10.6875 l -11.4375,0 0,14.03125 12.59375,0 c 0.93955,3.49191 2.34531,6.77971 4.15625,9.8125 l -9.1875,6.6875 8.25,11.34375 10.21875,-7.40625 c 2.77793,2.20677 5.86805,4.01792 9.1875,5.40625 l -3.4375,10.5625 13.34375,4.34375 3.84375,-11.90625 c 0.43392,0.0142 0.87513,0.0312 1.3125,0.0312 2.24972,0 4.4482,-0.19712 6.59375,-0.5625 l 3.53125,10.96875 13.34375,-4.34375 -3.71875,-11.4375 c 3.20939,-1.88659 6.11883,-4.21499 8.65625,-6.90625 l 9.78125,7.09375 8.25,-11.3125 -10.40625,-7.5625 c 1.36197,-3.26967 2.28772,-6.76084 2.71875,-10.40625 l 11.21875,0 0,-14.03125 -12.09375,0 c -0.91453,-3.66803 -2.34884,-7.13727 -4.21875,-10.3125 l 8.625,-6.25 -8.25,-11.34375 -9.5625,6.96875 c -1.52559,-1.22904 -3.14188,-2.35174 -4.84375,-3.3437 l 3.59375,-10.96875 -13.34375,-4.3125 -3.40625,10.53125 c -2.10622,-0.3521 -4.2628,-0.53125 -6.46875,-0.53125 -2.35742,0 -4.66267,0.22553 -6.90625,0.625 L 282.38748,345.5 z m 10.4375,16.78125 c 17.9298,0 32.46875,14.53895 32.46875,32.46875 0,17.9298 -14.53895,32.46875 -32.46875,32.46875 -17.9298,0 -32.46875,-14.53895 -32.46875,-32.46875 0,-17.9298 14.53895,-32.46875 32.46875,-32.46875 z" id="rect5491" style="fill:#ffff00;stroke:#000000;stroke-opacity:1" /> </g> <g transform="translate(-89.714272,-159.21931)" id="layer2" style="display:inline"> <path d="m 375.52721,386.72571 53.48923,0 0,11.07608 -19.54642,0 0,78.06847 19.54642,0 0,11.61202 -53.48923,0 0,-11.61202 21.61621,0 0,-78.06847 -21.61621,0 z" id="path5489" style="fill:#ff0000;stroke:#000000;stroke-width:1px;stroke-linecap:butt;stroke-linejoin:miter;stroke-opacity:1" /> <path d="m 257.62059,324.11015 0,-10.62946 52.87932,0 0,10.62946 -19.6511,0 0,79.40832 19.6511,0 0,10.50525 -52.87932,0 0,-10.50525 21.9735,0 0,-79.40832 z" id="path5455" style="fill:#0000ff;stroke:#000000;stroke-width:1px;stroke-linecap:butt;stroke-linejoin:miter;stroke-opacity:1" /> <path d="m 293.8858,447.10819 0,-102.36438 13.39848,0 38.40898,65.92052 0,-65.92052 16.25682,0 0,102.72167 -16.25682,-0.35729 -38.40898,-66.45645 0,66.45645 z" id="path5458" style="fill:#005500;stroke:#000000;stroke-width:1px;stroke-linecap:butt;stroke-linejoin:miter;stroke-opacity:1;display:inline" /> <path d="m 328.72185,359.57146 81.46276,0 0,23.58132 -15.89953,0 0,-10.18284 -19.11517,0 0,88.07267 19.11517,-0.35729 0,15.0063 -49.75303,0 0,-15.0063 19.74043,0.71458 0,-88.42996 -19.74043,0 0,10.18284 -15.8102,0 z" id="path5480" style="fill:#ffff00;stroke:#000000;stroke-width:1px;stroke-linecap:butt;stroke-linejoin:miter;stroke-opacity:1;display:inline" /> </g> </g> </svg> 